<svg xmlns="http://www.w3.org/2000/svg" width="24" height="24"
     fill="none" stroke="#fff" stroke-width="2"
     stroke-linecap="round" stroke-linejoin="round">
  <!-- Outer circle -->
  <path d="M21 12a9 9 0 1 1-18 0a9 9 0 0 1 18 0"/>

  <!-- User head -->
  <path d="M15 9a3 3 0 1 1-6 0a3 3 0 0 1 6 0"/>

  <!-- User shoulders -->
  <path d="M7 19c1.2-2.2 3.2-3.5 5-3.5s3.8 1.3 5 3.5"/>

  <!-- Admin badge (shield) -->
  <path d="M19 10l2 1v2c0 2-1.2 3.7-2 4-0.8-0.3-2-2-2-4v-2z"/>

  <!-- Check mark inside shield -->
  <path d="M18.6 13l0.9 0.9 1.8-1.8"/>
</svg>
